<svg xmlns="http://www.w3.org/2000/svg" xmlns:xlink="http://www.w3.org/1999/xlink" viewBox="0,0,256,256" width="512px" height="512px" fill-rule="nonzero"><g fill="#ffffff" fill-rule="nonzero" stroke="none" stroke-width="1" stroke-linecap="butt" stroke-linejoin="miter" stroke-miterlimit="10" stroke-dasharray="" stroke-dashoffset="0" font-family="none" font-weight="none" font-size="none" text-anchor="none" style="mix-blend-mode: normal"><g transform="scale(4,4)"><path d="M32,6c-14.359,0 -26,11.641 -26,26c0,14.359 11.641,26 26,26c14.359,0 26,-11.641 26,-26c0,-14.359 -11.641,-26 -26,-26zM49.488,18.673c2.739,3.586 4.399,8.035 4.5,12.862c-4.48,-0.847 -9.661,-1.261 -15.157,-0.152c-0.656,-1.523 -1.345,-3.041 -2.086,-4.547c6.467,-2.705 10.587,-6.057 12.743,-8.163zM46.766,15.706c-1.871,1.808 -5.719,4.956 -11.907,7.499c-2.369,-4.366 -5.073,-8.602 -8.059,-12.578c1.668,-0.407 3.408,-0.627 5.2,-0.627c5.677,0 10.859,2.162 14.766,5.706zM22.824,12.013c3.056,3.954 5.819,8.188 8.23,12.563c-5.393,1.703 -12.17,2.839 -20.502,2.548c1.527,-6.724 6.142,-12.285 12.272,-15.111zM10,32c0,-0.3 0.011,-0.599 0.023,-0.896c1.112,0.046 2.208,0.076 3.271,0.076c7.911,0 14.417,-1.22 19.684,-2.948c0.691,1.389 1.337,2.789 1.953,4.193c-6.267,2.099 -12.812,6.412 -19.101,14.473c-3.616,-3.922 -5.83,-9.155 -5.83,-14.898zM18.803,49.59c5.859,-7.593 11.865,-11.596 17.655,-13.475c2.097,5.409 3.593,10.831 4.384,16.024c-2.708,1.193 -5.698,1.861 -8.842,1.861c-4.948,0 -9.518,-1.643 -13.197,-4.41zM44.564,50.044c-0.854,-4.859 -2.281,-9.884 -4.195,-14.897c4.723,-0.823 9.239,-0.41 13.34,0.407c-0.976,5.981 -4.371,11.156 -9.145,14.49z"></path></g></g></svg>